<svg width="46" height="46" viewBox="0 0 46 46" fill="none" xmlns="http://www.w3.org/2000/svg">
<path fill-rule="evenodd" clip-rule="evenodd" d="M45.9997 22.9996C45.9997 10.2971 35.7027 0 23 0C10.2973 0 0 10.2971 0 22.9996C0 35.7009 10.2973 46 23 46.0003C35.7024 46.0003 45.9997 35.7009 45.9997 22.9996ZM26.7775 13.0729C30.1384 13.3293 32.9848 15.5559 32.9848 15.5559C32.9848 15.5559 36.162 20.1646 36.7091 29.212C33.5034 32.9076 28.6397 32.9365 28.6397 32.9365L27.6227 31.5807C29.3481 30.9802 31.2983 29.9064 32.9848 27.9708C30.9734 29.492 27.9415 31.0744 23.053 31.0744C18.1645 31.0744 15.1303 29.49 13.1211 27.9708C14.8057 29.9064 16.7559 30.9802 18.4833 31.5807L17.4663 32.9365C17.4663 32.9365 12.6006 32.9076 9.39689 29.212C9.94197 20.1646 13.1214 15.5559 13.1214 15.5559C13.1214 15.5559 15.8002 13.4068 19.3287 13.0729L19.6309 13.6784C16.8559 14.3054 15.1959 15.4885 13.7421 16.7974C16.2513 15.5159 18.7323 14.3144 23.053 14.3144C27.3737 14.3144 29.8526 15.5159 32.3642 16.7974C30.9063 15.4885 29.5137 14.4226 26.4734 13.6784L26.7775 13.0729ZM16.8457 24.2458C16.8457 25.6179 17.8174 26.7288 19.0181 26.7288C20.2188 26.7288 21.1909 25.6182 21.1909 24.2458C21.1909 22.8748 20.2188 21.7631 19.0181 21.7631C17.8177 21.7631 16.8457 22.8748 16.8457 24.2458ZM24.9151 24.2458C24.9151 25.6179 25.8872 26.7288 27.0878 26.7288C28.2862 26.7288 29.2603 25.6182 29.2603 24.2458C29.2603 22.8748 28.2882 21.7631 27.0878 21.7631C25.8872 21.7631 24.9151 22.8748 24.9151 24.2458Z" fill="white"/>
</svg>
