<svg width="46" height="45" viewBox="0 0 46 45" fill="none" xmlns="http://www.w3.org/2000/svg">
<path fill-rule="evenodd" clip-rule="evenodd" d="M22.9979 0C10.2974 0 0 10.3284 0 23.0701C0 33.2626 6.58958 41.9086 15.7291 44.9605C16.8799 45.1715 17.2992 44.4592 17.2992 43.8474C17.2992 43.3007 17.2795 41.8491 17.2682 39.9245C10.8706 41.318 9.52079 36.8315 9.52079 36.8315C8.47454 34.1662 6.96657 33.4566 6.96657 33.4566C4.8783 32.0263 7.12471 32.0546 7.12471 32.0546C9.43325 32.2174 10.6475 34.4324 10.6475 34.4324C12.6991 37.9574 16.0313 36.9391 17.3416 36.3485C17.5506 34.8587 18.1436 33.8418 18.8016 33.2654C13.6945 32.6834 8.32487 30.7035 8.32487 21.8635C8.32487 19.3455 9.22146 17.2863 10.6927 15.6732C10.4555 15.0898 9.66623 12.7445 10.9172 9.56794C10.9172 9.56794 12.8488 8.94764 17.2428 11.933C19.0769 11.4203 21.0452 11.1654 23.0007 11.1569C24.9534 11.1654 26.9217 11.4203 28.7586 11.933C33.1498 8.94764 35.0771 9.56794 35.0771 9.56794C36.3324 12.7445 35.5431 15.0898 35.3059 15.6732C36.7799 17.2863 37.6709 19.3455 37.6709 21.8635C37.6709 30.7262 32.2928 32.6763 27.1688 33.247C27.9948 33.9594 28.7304 35.3671 28.7304 37.5197C28.7304 40.6028 28.7022 43.0911 28.7022 43.8474C28.7022 44.4649 29.1159 45.1829 30.2836 44.9577C39.4161 41.9001 46 33.2598 46 23.0701C46 10.3284 35.7012 0 22.9979 0Z" fill="white"/>
</svg>
